<?xml version="1.0" encoding="utf-8"?>
<!-- Generator: Adobe Illustrator 18.1.1, SVG Export Plug-In . SVG Version: 6.00 Build 0)  -->
<svg version="1.1" xmlns="http://www.w3.org/2000/svg" xmlns:xlink="http://www.w3.org/1999/xlink" x="0px" y="0px"
	 viewBox="0 0 574.7 778.6" enable-background="new 0 0 574.7 778.6" xml:space="preserve">
<g id="Layer_1">
	<g display="none">
		<g display="inline" enable-background="new    ">
			<g>
				<polygon points="245.7,10.3 278.1,94.5 260.4,194.4 228,110.3 				"/>
			</g>
			<g>
				<polygon points="530.5,35.2 562.9,119.4 278.1,94.5 245.7,10.3 				"/>
			</g>
			<g>
				<polygon fill="#FFFFFF" points="388.5,124.3 421,208.5 260.4,194.4 228,110.3 				"/>
			</g>
			<g>
				<polygon points="376.8,132.9 409.2,217 248.6,203 216.2,118.8 				"/>
			</g>
			<g>
				<polygon points="154.7,419.9 187.1,504 186.1,509.7 153.7,425.6 				"/>
			</g>
			<g>
				<polygon points="142.6,430.4 175,514.6 46.8,526.4 14.3,442.2 				"/>
			</g>
			<g>
				<path d="M56.3,651.8l-32.5-84.1c-13.9-36.1-17.2-78.6-9.5-125.4l32.5,84.1C39.1,573.2,42.3,615.7,56.3,651.8z"/>
			</g>
			<g>
				<path fill="#FFFFFF" d="M59.5,659.6c-1.1-2.6-2.2-5.1-3.2-7.8l-32.5-84.1c1,2.6,2.1,5.2,3.2,7.8c1.1,2.9,2.6,6.9,3.8,9.8
					c1.2,3.1,2.8,7.3,4,10.4c1.3,3.2,2.9,7.6,4.2,10.8c1.3,3.3,3,7.7,4.2,11c1.3,3.3,3,7.7,4.2,11c1.3,3.2,2.9,7.6,4.2,10.8
					c1.2,3.1,2.8,7.3,4,10.4C56.8,652.7,58.4,656.7,59.5,659.6z"/>
			</g>
			<g>
				<path fill="#FFFFFF" d="M175,514.6c-7,42.4-5.8,75.1,3.5,99.3l-32.5-84.1c-9.3-24.2-10.5-56.8-3.5-99.3
					C152.3,455.7,172.3,487.6,175,514.6z"/>
			</g>
			<g>
				<path d="M188.2,610l-32.5-84.1c-9.1-23.6-9.8-57-2.1-100.3l32.5,84.1C178.4,553.1,179.1,586.4,188.2,610z"/>
			</g>
			<g>
				<polygon points="388.5,124.3 421,208.5 356,575.4 323.6,491.2 				"/>
			</g>
			<g>
				<polygon fill="#FFFFFF" points="530.5,35.2 562.9,119.4 480.2,586.2 447.8,502.1 				"/>
			</g>
			<g>
				<polygon points="542.2,26.7 574.7,110.8 490.3,587.1 457.9,503 				"/>
			</g>
			<g>
				<path d="M178.6,613.8l-32.5-84.1c0.9,2.3,1.9,4.6,2.9,6.8c12.1,25.1,34.6,39.2,66.7,42c56.1,4.9,97.4-28.5,107.8-87.3l32.5,84.1
					c-10.4,58.8-51.7,92.2-107.8,87.3c-32.2-2.8-54.6-17-66.7-42C180.5,618.4,179.5,616.2,178.6,613.8z"/>
			</g>
			<g>
				<path fill="#FFFFFF" d="M530.5,35.2l-82.7,466.8c-10,56.3-40.8,105.6-86.7,138.6c-46.2,33.2-105.5,48.5-167,43.1
					c-63.4-5.5-114-30.9-146.4-73.3C14.8,567.4,3.3,509.3,14.3,442.2l128.3-11.8c-7.6,46.6-5.5,81.3,6.5,106.1
					c12.1,25.1,34.6,39.2,66.7,42c56.1,4.9,97.4-28.6,107.8-87.3l65-366.9l-160.6-14l17.7-100L530.5,35.2z"/>
			</g>
			<g>
				<path fill="#FFFFFF" d="M80.2,694.7c-8.2-10.8-15.1-22.5-20.7-35.1c-10.8-28-21.6-56.1-32.5-84.1c5.5,12.6,12.4,24.3,20.7,35.1
					c32.4,42.4,83,67.8,146.4,73.3c61.5,5.4,120.8-9.9,167-43.1c46-33.1,76.8-82.3,86.7-138.6l32.5,84.1
					c-10,56.3-40.8,105.6-86.7,138.6c-46.2,33.2-105.5,48.5-167,43.1C163.1,762.5,112.5,737.1,80.2,694.7z"/>
			</g>
			<g>
				<path d="M237.2,0l305,26.7L457.9,503c-21.6,121.9-133.2,201.9-265.5,190.3c-66.2-5.8-119.2-32.4-153.2-76.9
					C4.2,570.4-7.7,508.6,4.9,437.5l0.7-3.9l149.1-13.7l-1,5.7c-16.2,91.4,4.7,138.3,63.8,143.5c50.6,4.4,86.5-25,96-78.7
					l63.3-357.4l-160.6-14L237.2,0z M447.8,502.1l82.7-466.8L245.7,10.3l-17.7,100l160.6,14l-65,366.9
					c-10.4,58.8-51.7,92.2-107.8,87.3c-32.2-2.8-54.6-17-66.7-42c-12-24.8-14.1-59.5-6.5-106.1L14.3,442.2
					c-11.1,67,0.5,125.2,33.4,168.3c32.4,42.4,83,67.8,146.4,73.3c61.5,5.4,120.8-9.9,167-43.1C407,607.7,437.8,558.4,447.8,502.1"
					/>
			</g>
			<g>
				<path d="M46.6,655.5l-32.5-84.1c6.3,16.3,14.7,31.4,25.1,45c34,44.5,86.9,71.1,153.2,76.9c132.2,11.6,243.9-68.5,265.5-190.3
					l32.5,84.1C468.8,709,357.1,789,224.9,777.4c-66.2-5.8-119.2-32.4-153.2-76.9C61.2,686.9,52.9,671.8,46.6,655.5z"/>
			</g>
		</g>
	</g>
	<path d="M542.2,26.7L237.2,0l-21,118.8l32.5,84.1l113.9,10l-49.1,277.4c-9.5,53.7-45.4,83.2-96,78.7c-14.5-1.3-26.7-5-36.6-11.4
		c0.4-14.4,2.1-30.3,5.2-48l1-5.7l-32.5-84.1L5.6,433.6l-0.7,3.9c-8.9,50.4-5.5,96.2,9.7,135c-0.1-0.4-0.3-0.7-0.4-1.1l32.5,84.1
		c6.3,16.3,14.7,31.4,25.1,45c34,44.5,86.9,71.1,153.2,76.9C357.1,789,468.8,709,490.3,587.1l84.4-476.3L542.2,26.7z M447.8,502.1
		c-10,56.3-40.8,105.6-86.7,138.6c-46.2,33.2-105.5,48.5-167,43.1c-63.4-5.5-114-30.9-146.4-73.3c-1-1.3-1.9-2.6-2.8-3.8
		c-3.4-24.9-2.8-51.8,1.9-80.3l95.5-8.8c0.1,0.2,0.1,0.5,0.2,0.7c0.1,0.4,0.2,0.8,0.3,1.2c0.1,0.5,0.3,1,0.4,1.4
		c0.1,0.4,0.2,0.8,0.3,1.1c0.1,0.5,0.3,1,0.4,1.4c0.1,0.4,0.2,0.7,0.4,1.1c0.2,0.5,0.3,0.9,0.5,1.4c0.1,0.4,0.2,0.7,0.4,1.1
		c0.2,0.5,0.3,1,0.5,1.4c0.1,0.3,0.2,0.7,0.4,1c0,0.1,0.1,0.1,0.1,0.2l0,0c0,0,0,0,0,0l32.5,84.1c0.9,2.3,1.9,4.6,2.9,6.8
		c12.1,25.1,34.6,39.2,66.7,42c56.1,4.9,97.4-28.5,107.8-87.3l65-366.9h0l-32.5-84.1l0,0l-113.9-10l3.5-19.9l238.2,20.8L447.8,502.1
		z"/>
	<g>
		<path fill="#FFFFFF" d="M530.5,35.2l-82.7,466.8c-10,56.3-40.8,105.6-86.7,138.6c-46.2,33.2-105.5,48.5-167,43.1
			c-63.4-5.5-114-30.9-146.4-73.3C14.8,567.4,3.3,509.3,14.3,442.2l128.3-11.8c-7.6,46.6-5.5,81.3,6.5,106.1
			c12.1,25.1,34.6,39.2,66.7,42c56.1,4.9,97.4-28.6,107.8-87.3l65-366.9l-160.6-14l17.7-100L530.5,35.2z"/>
	</g>
</g>
<g id="Layer_2">
</g>
</svg>
