<?xml version="1.0" encoding="utf-8"?>
<!-- Generator: Adobe Illustrator 18.1.1, SVG Export Plug-In . SVG Version: 6.00 Build 0)  -->
<svg version="1.1" xmlns="http://www.w3.org/2000/svg" xmlns:xlink="http://www.w3.org/1999/xlink" x="0px" y="0px"
	 viewBox="0 0 612 792" enable-background="new 0 0 612 792" xml:space="preserve">
<g id="Layer_1">
	<g>
		<g enable-background="new    ">
			<g>
				<polygon points="247.8,11.3 280.3,95.5 262.5,195.4 230.1,111.3 				"/>
			</g>
			<g>
				<polygon points="532.6,36.2 565,120.4 280.3,95.5 247.8,11.3 				"/>
			</g>
			<g>
				<polygon fill="#FFFFFF" points="390.7,125.3 423.1,209.5 262.5,195.4 230.1,111.3 				"/>
			</g>
			<g>
				<polygon points="378.9,133.9 411.4,218 250.8,204 218.3,119.8 				"/>
			</g>
			<g>
				<polygon points="156.8,420.9 189.3,505 188.3,510.7 155.8,426.6 				"/>
			</g>
			<g>
				<polygon points="144.7,431.4 177.2,515.6 48.9,527.4 16.4,443.2 				"/>
			</g>
			<g>
				<path d="M58.4,652.8l-32.5-84.1C12,532.6,8.7,490.1,16.4,443.2l32.5,84.1C41.2,574.2,44.5,616.7,58.4,652.8z"/>
			</g>
			<g>
				<path fill="#FFFFFF" d="M61.6,660.6c-1.1-2.6-2.2-5.1-3.2-7.8L26,568.7c1,2.6,2.1,5.2,3.2,7.8c1.1,2.9,2.6,6.9,3.8,9.8
					c1.2,3.1,2.8,7.3,4,10.4c1.3,3.2,2.9,7.6,4.2,10.8c1.3,3.3,3,7.7,4.2,11c1.3,3.3,3,7.7,4.2,11c1.3,3.2,2.9,7.6,4.2,10.8
					c1.2,3.1,2.8,7.3,4,10.4C59,653.7,60.5,657.7,61.6,660.6z"/>
			</g>
			<g>
				<path fill="#FFFFFF" d="M177.2,515.6c-7,42.4-5.8,75.1,3.5,99.3l-32.5-84.1c-9.3-24.2-10.5-56.8-3.5-99.3
					C154.4,456.7,174.4,488.6,177.2,515.6z"/>
			</g>
			<g>
				<path d="M190.4,611l-32.5-84.1c-9.1-23.6-9.8-57-2.1-100.3l32.5,84.1C180.6,554.1,181.2,587.4,190.4,611z"/>
			</g>
			<g>
				<polygon points="390.7,125.3 423.1,209.5 358.2,576.4 325.7,492.2 				"/>
			</g>
			<g>
				<polygon fill="#FFFFFF" points="532.6,36.2 565.1,120.4 482.4,587.2 449.9,503.1 				"/>
			</g>
			<g>
				<polygon points="544.4,27.7 576.8,111.8 492.5,588.1 460,504 				"/>
			</g>
			<g>
				<path d="M180.7,614.8l-32.5-84.1c0.9,2.3,1.9,4.6,2.9,6.8c12.1,25.1,34.6,39.2,66.7,42c56.1,4.9,97.4-28.5,107.8-87.3l32.5,84.1
					c-10.4,58.8-51.7,92.2-107.8,87.3c-32.2-2.8-54.6-17-66.7-42C182.6,619.4,181.6,617.2,180.7,614.8z"/>
			</g>
			<g>
				<path fill="#FFFFFF" d="M532.6,36.2l-82.7,466.8c-10,56.3-40.8,105.6-86.7,138.6c-46.2,33.2-105.5,48.5-167,43.1
					c-63.4-5.5-114-30.9-146.4-73.3C16.9,568.4,5.4,510.3,16.5,443.2l128.3-11.8c-7.6,46.6-5.5,81.3,6.5,106.1
					c12.1,25.1,34.6,39.2,66.7,42c56.1,4.9,97.4-28.6,107.8-87.3l65-366.9l-160.6-14l17.7-100L532.6,36.2z"/>
			</g>
			<g>
				<path fill="#FFFFFF" d="M82.3,695.7c-8.2-10.8-15.1-22.5-20.7-35.1c-10.8-28-21.6-56.1-32.5-84.1c5.5,12.6,12.4,24.3,20.7,35.1
					c32.4,42.4,83,67.8,146.4,73.3c61.5,5.4,120.8-9.9,167-43.1c46-33.1,76.8-82.3,86.7-138.6l32.5,84.1
					c-10,56.3-40.8,105.6-86.7,138.6c-46.2,33.2-105.5,48.5-167,43.1C165.3,763.5,114.7,738.1,82.3,695.7z"/>
			</g>
			<g>
				<path d="M239.4,1l305,26.7L460,504c-21.6,121.9-133.2,201.9-265.5,190.3c-66.2-5.8-119.2-32.4-153.2-76.9
					C6.3,571.4-5.6,509.6,7,438.5l0.7-3.9l149.1-13.7l-1,5.7c-16.2,91.4,4.7,138.3,63.8,143.5c50.6,4.4,86.5-25,96-78.7l63.3-357.4
					l-160.6-14L239.4,1z M449.9,503.1l82.7-466.8L247.8,11.3l-17.7,100l160.6,14l-65,366.9c-10.4,58.8-51.7,92.2-107.8,87.3
					c-32.2-2.8-54.6-17-66.7-42c-12-24.8-14.1-59.5-6.5-106.1L16.4,443.2c-11.1,67,0.5,125.2,33.4,168.3
					c32.4,42.4,83,67.8,146.4,73.3c61.5,5.4,120.8-9.9,167-43.1C409.1,608.7,439.9,559.4,449.9,503.1"/>
			</g>
			<g>
				<path d="M48.7,656.5l-32.5-84.1c6.3,16.3,14.7,31.4,25.1,45c34,44.5,86.9,71.1,153.2,76.9C326.8,705.9,438.4,625.8,460,504
					l32.5,84.1C470.9,710,359.2,790,227,778.4c-66.2-5.8-119.2-32.4-153.2-76.9C63.4,687.9,55,672.8,48.7,656.5z"/>
			</g>
		</g>
	</g>
</g>
<g id="Layer_2">
</g>
</svg>
