<svg xmlns="http://www.w3.org/2000/svg" viewBox="0 0 574.7 778.6"><path d="M542.2 26.7L237.2 0l-21 118.8 32.5 84.1 113.9 10-49.1 277.4c-9.5 53.7-45.4 83.2-96 78.7-14.5-1.3-26.7-5-36.6-11.4.4-14.4 2.1-30.3 5.2-48l1-5.7-32.5-84.1-149 13.8-.7 3.9c-8.9 50.4-5.5 96.2 9.7 135-.1-.4-.3-.7-.4-1.1l32.5 84.1c6.3 16.3 14.7 31.4 25.1 45 34 44.5 86.9 71.1 153.2 76.9C357.1 789 468.8 709 490.3 587.1l84.4-476.3-32.5-84.1zm-94.4 475.4c-10 56.3-40.8 105.6-86.7 138.6-46.2 33.2-105.5 48.5-167 43.1-63.4-5.5-114-30.9-146.4-73.3-1-1.3-1.9-2.6-2.8-3.8-3.4-24.9-2.8-51.8 1.9-80.3l95.5-8.8c.1.2.1.5.2.7l.3 1.2c.1.5.3 1 .4 1.4.1.4.2.8.3 1.1.1.5.3 1 .4 1.4.1.4.2.7.4 1.1.2.5.3.9.5 1.4.1.4.2.7.4 1.1.2.5.3 1 .5 1.4.1.3.2.7.4 1 0 .1.1.1.1.2l32.5 84.1c.9 2.3 1.9 4.6 2.9 6.8 12.1 25.1 34.6 39.2 66.7 42 56.1 4.9 97.4-28.5 107.8-87.3l65-366.9-32.5-84.1-113.9-10 3.5-19.9 238.2 20.8-68.6 387z"/><path fill="#FFF" d="M530.5 35.2L447.8 502c-10 56.3-40.8 105.6-86.7 138.6-46.2 33.2-105.5 48.5-167 43.1-63.4-5.5-114-30.9-146.4-73.3-32.9-43-44.4-101.1-33.4-168.2l128.3-11.8c-7.6 46.6-5.5 81.3 6.5 106.1 12.1 25.1 34.6 39.2 66.7 42 56.1 4.9 97.4-28.6 107.8-87.3l65-366.9-160.6-14 17.7-100 284.8 24.9z"/></svg>