<?xml version="1.0" encoding="utf-8"?>
<!-- Generator: Adobe Illustrator 16.0.0, SVG Export Plug-In . SVG Version: 6.00 Build 0)  -->
<!DOCTYPE svg PUBLIC "-//W3C//DTD SVG 1.1//EN" "http://www.w3.org/Graphics/SVG/1.1/DTD/svg11.dtd">
<svg version="1.1" id="Layer_1" xmlns="http://www.w3.org/2000/svg" xmlns:xlink="http://www.w3.org/1999/xlink" x="0px" y="0px"
	 width="100px" height="81.897px" viewBox="0 0 100 81.897" enable-background="new 0 0 100 81.897" xml:space="preserve">
<g>
	<path fill="#010101" d="M72.775,56.224c1.18-0.372,2.904-0.412,4.1-0.412c0.73,0,1.485,0.018,2.218,0.033
		c0.72,0.018,1.466,0.036,2.176,0.036c5.072,0,9.847-2.147,13.442-6.051C98.073,46.187,100,41.302,100,36.433
		c0-5.113-1.983-9.73-5.591-13c-3.389-3.074-8.058-4.768-13.141-4.768c-1.846,0-3.399,0.273-4.692,0.595
		c0.009-1.216,0.013-2.486,0.013-3.814c0-3.505-2.229-8.421-12.855-11.933C56.878,1.247,47.842,0,38.295,0
		c-9.548,0-18.583,1.248-25.44,3.513C2.23,7.024,0,11.94,0,15.446c0,14.945,0.519,26.825,3.047,36.22
		c2.457,9.117,6.747,16.093,14.348,23.318c4.755,4.521,11.982,6.913,20.898,6.913c8.919,0,16.146-2.393,20.9-6.913
		c5.787-5.501,9.699-11.117,12.681-18.205C71.916,56.687,72.009,56.465,72.775,56.224z M68.034,55.165
		c-2.635,6.268-6.133,11.498-11.711,16.802c-3.898,3.706-10.034,5.763-18.028,5.763c-7.995,0-14.133-2.059-18.03-5.763
		C6.548,58.92,4.167,46.824,4.167,15.447c0-6.229,15.279-11.278,34.127-11.278c18.848,0,34.127,5.049,34.127,11.278
		c0,3.163-0.023,6.124-0.081,8.917c0.202,0.029,0.404,0.044,0.608,0.044c2.149,0,4.391-1.576,8.319-1.576
		c4.047,0,7.721,1.311,10.343,3.687c2.723,2.47,4.223,5.99,4.223,9.914c0,3.834-1.526,7.688-4.187,10.573
		c-2.799,3.035-6.484,4.708-10.379,4.708c-1.358,0-2.877-0.072-4.394-0.072C73.101,51.642,69.331,52.084,68.034,55.165z"/>
	<path fill="#010101" d="M81.269,46.005c4.782-0.482,8.855-4.472,8.855-9.571c0-4.794-3.476-7.892-8.855-7.892
		c-4.453,0-7.686,2.281-9.302,5.24c-0.166,2.615-1.311,10.613-1.594,12.898c1.174-0.695,2.806-0.881,4.502-0.881
		c1.949,0,3.983,0.245,5.5,0.245C80.698,46.045,80.999,46.034,81.269,46.005z M76.036,35.139c0.762-1.023,2.335-2.429,5.232-2.429
		c2.14,0,4.69,0.646,4.69,3.725c0,3.071-2.598,5.172-5.108,5.425c-0.077,0.008-0.225,0.017-0.476,0.017
		c-0.576,0-1.335-0.05-2.139-0.103c-0.917-0.059-1.942-0.127-2.988-0.141C75.56,39.284,75.872,36.824,76.036,35.139z"/>
	<path fill="#010101" d="M62.768,12.169c-0.507-0.272-1.138-0.083-1.413,0.424c-0.271,0.506-0.083,1.138,0.425,1.412
		c1.388,0.748,2.184,1.552,2.184,2.204c0,0.581-0.645,1.39-2.243,2.237c-3.851-2.821-12.888-4.805-23.426-4.805
		c-10.54,0-19.576,1.983-23.427,4.805c-1.597-0.847-2.241-1.655-2.241-2.237c0-0.655,0.799-1.46,2.192-2.209
		c0.507-0.272,0.696-0.904,0.425-1.412c-0.275-0.506-0.906-0.696-1.413-0.424c-2.183,1.173-3.289,2.533-3.289,4.043
		c0,3.281,5.285,5.599,12.562,6.897c-0.947,1.104-1.412,2.809-1.412,5.195v10.342c-0.226,0.111-0.439,0.258-0.628,0.446
		l-4.615,4.614c-0.918,0.921-1.672,2.735-1.672,4.035v7.566c0,1.299,1.064,2.364,2.364,2.364h11.186
		c1.299,0,2.363-1.065,2.363-2.364v-7.566c0-1.3-0.751-3.114-1.67-4.035l-4.614-4.614c-0.188-0.188-0.401-0.335-0.629-0.446V28.299
		c0-1.992,0.355-3.333,1.054-3.993c0.485-0.458,1.21-0.653,2.219-0.593c0.058,0.002,0.112-0.001,0.167-0.008
		c3.512,0.413,7.301,0.624,11.079,0.624c13.791,0,27.751-2.79,27.751-8.123C66.046,14.702,64.943,13.341,62.768,12.169z"/>
</g>
</svg>
