<svg version="1.2" baseProfile="tiny" xmlns="http://www.w3.org/2000/svg" width="24" height="24" viewBox="0 0 24 24"><path fill="#fff" d="M14.435 12.973c.27 0 .492.133.686.396.193.264.295.587.295.974 0 .385-.102.71-.294.973-.192.265-.416.396-.685.396-.278 0-.522-.13-.715-.396-.192-.262-.294-.588-.294-.973 0-.387.102-.71.294-.975s.436-.397.715-.397m3.44-3.56C18.62 10.226 19 11.21 19 12.368c0 .748-.086 1.423-.26 2.023-.174.597-.393 1.084-.653 1.46a4.268 4.268 0 0 1-.974.988 4.94 4.94 0 0 1-1.065.623 5.465 5.465 0 0 1-1.11.307 9 9 0 0 1-.944.123l-.685.014-.548.015a17.567 17.567 0 0 1-1.524 0l-.547-.016-.684-.014a8.966 8.966 0 0 1-.943-.123 5.28 5.28 0 0 1-1.11-.306 4.888 4.888 0 0 1-1.065-.622 4.253 4.253 0 0 1-.975-.99c-.26-.374-.48-.86-.654-1.458-.174-.6-.26-1.275-.26-2.023 0-1.158.38-2.143 1.125-2.953-.082-.04-.085-.447-.008-1.217a7.07 7.07 0 0 1 .495-2.132c.934.1 2.09.63 3.47 1.58.467-.118 1.102-.182 1.918-.182.852 0 1.49.064 1.918.184.63-.425 1.23-.77 1.805-1.034.584-.26 1.005-.416 1.27-.457l.395-.09c.27.65.434 1.36.496 2.132.076.77.073 1.175-.01 1.216m-5.844 7.82c1.688 0 2.954-.202 3.82-.607.856-.404 1.293-1.238 1.293-2.496 0-.73-.273-1.34-.822-1.827a1.845 1.845 0 0 0-.988-.486c-.375-.06-.95-.06-1.72 0-.77.062-1.298.09-1.582.09-.385 0-.8-.018-1.32-.06-.52-.04-.927-.064-1.222-.077-.294-.01-.61.027-.958.108-.345.082-.63.224-.853.425-.52.47-.79 1.077-.79 1.828 0 1.26.426 2.093 1.28 2.497.85.405 2.113.607 3.802.607h.06m-2.434-4.26c.268 0 .492.132.685.395.193.264.295.587.295.974 0 .385-.102.71-.294.973-.19.265-.416.396-.684.396-.28 0-.522-.13-.716-.396-.192-.262-.294-.588-.294-.973 0-.387.102-.71.294-.975.193-.265.436-.397.716-.397"/></svg>