<svg version="1.2" baseProfile="tiny" xmlns="http://www.w3.org/2000/svg" width="24" height="24" viewBox="0 0 24 24"><path fill="#fff" d="M12 21c-4.963 0-9-4.038-9-9s4.037-9 9-9 9 4.038 9 9-4.037 9-9 9zm0-16c-3.86 0-7 3.14-7 7s3.14 7 7 7 7-3.14 7-7-3.14-7-7-7zm1.565 7.626c.17 0 .316.084.44.255.125.17.188.38.188.626 0 .248-.062.457-.187.626-.125.17-.27.254-.44.254-.182 0-.338-.084-.462-.254-.124-.17-.187-.378-.187-.626s.062-.456.187-.625c.125-.17.28-.254.46-.254m2.21-2.29c.483.523.726 1.156.726 1.9 0 .48-.057.914-.166 1.3-.11.384-.252.698-.42.94-.17.24-.378.453-.627.634a3.26 3.26 0 0 1-.685.4c-.208.086-.446.15-.716.197a5.22 5.22 0 0 1-.606.08l-.44.008-.352.01-.488.01-.488-.01-.352-.01-.44-.01a5.168 5.168 0 0 1-.606-.078 3.272 3.272 0 0 1-.716-.196 3.19 3.19 0 0 1-.684-.4 2.74 2.74 0 0 1-.628-.635 3.196 3.196 0 0 1-.42-.94 4.78 4.78 0 0 1-.166-1.3c0-.743.242-1.376.725-1.898-.053-.026-.056-.286-.008-.782a4.65 4.65 0 0 1 .32-1.37c.6.064 1.342.404 2.23 1.017.3-.078.71-.118 1.232-.118.548 0 .958.04 1.233.118a8.29 8.29 0 0 1 1.16-.666c.374-.168.644-.267.814-.293l.254-.058c.173.417.278.875.32 1.37.05.496.048.756-.005.782m-3.754 5.027c1.084 0 1.9-.13 2.455-.39.553-.26.833-.796.833-1.605 0-.47-.176-.862-.53-1.175a1.192 1.192 0 0 0-.637-.313c-.237-.04-.606-.04-1.103 0-.495.04-.834.058-1.016.058-.247 0-.516-.013-.85-.04l-.783-.048a2.408 2.408 0 0 0-.616.07 1.235 1.235 0 0 0-.55.272c-.335.3-.506.69-.506 1.174 0 .81.274 1.345.82 1.605.548.26 1.362.39 2.445.39m-1.525-2.737c.17 0 .316.084.44.255.124.17.187.38.187.626 0 .248-.062.457-.187.626-.124.17-.27.254-.44.254-.182 0-.337-.084-.462-.254-.124-.17-.187-.378-.187-.626s.062-.456.187-.625c.125-.17.28-.254.462-.254"/></svg>