<svg version="1.2" baseProfile="tiny" xmlns="http://www.w3.org/2000/svg" width="24" height="24" viewBox="0 0 24 24"><path fill="#fff" d="M20.668 13.312c.06-.427.09-.846.09-1.25 0-2.438-.847-4.545-2.514-6.264-1.685-1.735-3.755-2.615-6.152-2.615-.28 0-.546.013-.8.038a5.716 5.716 0 0 0-2.427-.525c-1.61 0-3.053.61-4.174 1.765C3.587 5.595 3 7.045 3 8.652c0 .832.156 1.62.466 2.348a8.15 8.15 0 0 0-.07 1.062c0 2.438.853 4.547 2.532 6.267 1.693 1.73 3.768 2.61 6.164 2.61.254 0 .547-.02.896-.06.69.282 1.41.425 2.146.425 1.588 0 3.025-.614 4.157-1.777a5.912 5.912 0 0 0 1.71-4.21c0-.678-.11-1.35-.332-2.006zM15.5 15.348c-.284.427-.73.78-1.34 1.065-.608.243-1.31.365-2.1.365-.953 0-1.755-.173-2.403-.52a3.068 3.068 0 0 1-1.096-1.002c-.283-.447-.427-.862-.427-1.248 0-.243.092-.457.274-.64a.945.945 0 0 1 .7-.273c.203 0 .406.072.61.213.16.162.282.366.363.61.02.02.153.252.396.7.102.14.284.282.547.424.245.122.568.183.975.183.548 0 1.005-.12 1.37-.364.324-.223.486-.506.486-.852 0-.284-.092-.498-.274-.64a1.856 1.856 0 0 0-.7-.426l-.318-.075-.457-.123a3.733 3.733 0 0 0-.44-.106c-.69-.14-1.278-.324-1.767-.548-.426-.162-.81-.445-1.156-.85-.283-.387-.426-.844-.426-1.37 0-.53.152-.995.457-1.4.304-.407.74-.712 1.308-.914.57-.224 1.22-.334 1.95-.334.548 0 1.066.07 1.552.213.468.162.843.355 1.127.58.262.242.476.485.638.728.142.324.214.59.214.79a.904.904 0 0 1-.275.67.956.956 0 0 1-.7.306.93.93 0 0 1-.577-.185c-.102-.1-.233-.283-.396-.547a2.072 2.072 0 0 0-.577-.762c-.243-.182-.62-.273-1.127-.273s-.892.102-1.156.305c-.284.184-.426.396-.426.64 0 .16.05.295.152.395.102.143.232.255.396.336.102.06.274.13.518.21l.41.107c.213.053.39.087.533.107.283.06.77.192 1.46.396.407.14.792.323 1.157.548.346.242.6.517.762.82.162.365.242.77.242 1.217a2.756 2.756 0 0 1-.458 1.523z"/></svg>