<svg version="1.2" baseProfile="tiny" xmlns="http://www.w3.org/2000/svg" width="24" height="24" viewBox="0 0 24 24"><path fill="#fff" d="M18.89 7.012c.808-.496 1.343-1.173 1.605-2.034a8.68 8.68 0 0 1-2.35.86c-.704-.755-1.594-1.14-2.66-1.14-1.044 0-1.925.367-2.644 1.08a3.56 3.56 0 0 0-1.075 2.604c0 .31.04.585.117.82C8.806 9.095 6.26 7.82 4.254 5.363c-.34.6-.51 1.213-.51 1.846 0 1.3.55 2.332 1.645 3.09-.626-.054-1.177-.212-1.646-.47 0 .928.273 1.704.82 2.387a3.623 3.623 0 0 0 2.115 1.29c-.313.08-.642.12-.98.12-.312 0-.533-.027-.664-.084.23.757.664 1.37 1.29 1.84.626.473 1.345.722 2.153.744-1.333 1.045-2.856 1.562-4.58 1.562-.42 0-.72-.007-.9-.04 1.696 1.103 3.585 1.65 5.675 1.65 2.14 0 4.03-.542 5.674-1.626 1.644-1.078 2.858-2.408 3.638-3.974a10.77 10.77 0 0 0 1.172-4.892V8.34A7.788 7.788 0 0 0 21 6.42a8.142 8.142 0 0 1-2.11.592z"/></svg>