<svg version="1.2" baseProfile="tiny" xmlns="http://www.w3.org/2000/svg" width="24" height="24" viewBox="0 0 24 24"><path fill="#fff" d="M8.865 5c.75 0 1.44.202 2.07.61.323-.08.71-.122 1.156-.122 1.847 0 3.42.67 4.718 2.008 1.3 1.34 1.948 2.962 1.948 4.87 0 .466-.05.953-.152 1.46.264.59.396 1.188.396 1.795 0 1.098-.38 2.037-1.142 2.816-.76.78-1.668 1.173-2.725 1.173-.63 0-1.237-.163-1.825-.49-.527.082-.933.123-1.217.123-1.846 0-3.424-.67-4.732-2.01s-1.963-2.96-1.963-4.867c0-.447.05-.902.152-1.37A3.897 3.897 0 0 1 5 8.956c0-1.095.376-2.028 1.126-2.798C6.876 5.386 7.79 5 8.866 5M12 15.53c-.406 0-.73-.06-.975-.183-.263-.142-.445-.284-.547-.425-.243-.447-.376-.68-.396-.7a1.53 1.53 0 0 0-.364-.61 1.072 1.072 0 0 0-.61-.212.947.947 0 0 0-.7.274.874.874 0 0 0-.274.64c0 .385.144.8.428 1.247.263.406.63.742 1.096 1.004.648.346 1.45.52 2.404.52.79 0 1.49-.123 2.1-.366.61-.284 1.055-.64 1.34-1.065.303-.467.455-.975.455-1.522 0-.444-.08-.85-.242-1.216-.163-.304-.416-.578-.762-.82a5.854 5.854 0 0 0-1.156-.548 22.257 22.257 0 0 0-1.46-.396 5.87 5.87 0 0 1-.534-.107l-.41-.106a2.897 2.897 0 0 1-.518-.212 1.053 1.053 0 0 1-.396-.336.527.527 0 0 1-.153-.397c0-.243.142-.455.426-.64.265-.202.65-.304 1.156-.304.507 0 .883.09 1.126.272.263.225.456.478.577.762.163.264.295.446.396.547a.93.93 0 0 0 .577.185.954.954 0 0 0 .7-.306.9.9 0 0 0 .274-.67c0-.202-.07-.467-.213-.79a4.128 4.128 0 0 0-.64-.73c-.283-.224-.658-.417-1.126-.58a5.47 5.47 0 0 0-1.55-.212c-.73 0-1.38.11-1.95.335-.565.2-1.002.505-1.306.91a2.267 2.267 0 0 0-.457 1.4c0 .528.143.985.426 1.37.346.406.73.69 1.156.852.487.224 1.075.407 1.765.548.12.02.27.056.44.106l.458.122.32.075c.283.103.516.243.698.427.184.14.275.354.275.64 0 .345-.162.628-.486.852-.365.243-.822.364-1.37.364M8.865 3c-1.61 0-3.053.61-4.174 1.765C3.587 5.9 3 7.35 3 8.957c0 .832.156 1.62.466 2.348a8.15 8.15 0 0 0-.07 1.062c0 2.438.853 4.547 2.532 6.267 1.693 1.732 3.768 2.61 6.164 2.61.254 0 .547-.02.896-.06.69.283 1.41.426 2.146.426 1.588 0 3.025-.614 4.157-1.777a5.912 5.912 0 0 0 1.71-4.21c0-.678-.11-1.35-.332-2.005.06-.427.09-.846.09-1.25 0-2.438-.847-4.545-2.514-6.264C16.56 4.37 14.49 3.49 12.092 3.49c-.28 0-.546.012-.8.037A5.717 5.717 0 0 0 8.864 3z"/></svg>